<svg preserveAspectRatio="xMinYMin meet" width="1166" height="144" viewBox="0 0 1166 144" fill="none" xmlns="http://www.w3.org/2000/svg">
<g clip-path="url(#clip0_2132_2)">
<path d="M880.24 141.57C869.1 141.57 858.62 141.5 848.15 141.61C845.05 141.64 844.79 139.55 844.28 137.44C839.6 117.92 834.93 98.4 830.24 78.89C829.32 75.07 828.3 71.27 826.43 67.5C824.1 77.14 821.76 86.78 819.44 96.42C816.1 110.28 812.68 124.13 809.5 138.03C808.82 141.02 807.28 141.64 804.6 141.61C795.44 141.52 786.27 141.45 777.11 141.64C774.15 141.7 772.93 140.51 772.36 137.85C768.36 118.87 764.3 99.89 760.28 80.91C755.16 56.73 750.04 32.55 744.94 8.36999C744.57 6.60999 744.33 4.81999 743.98 2.75999C745.42 2.51999 746.53 2.17999 747.63 2.17999C757.63 2.13999 767.63 2.19999 777.62 2.11999C780.53 2.09999 781.99 2.85999 782.59 6.14999C786.03 25.25 789.76 44.3 793.42 63.36C793.74 65.04 794.2 66.69 795.48 68.39C797.42 60.2 799.35 52.02 801.29 43.83C804.2 31.56 807.25 19.33 809.93 7.00999C810.71 3.42999 812.05 1.93999 815.86 2.06999C823.85 2.32999 831.86 2.26999 839.85 2.08999C843.26 2.01999 844.78 3.08999 845.58 6.61999C850.03 26.37 854.78 46.05 859.44 65.75C859.66 66.66 860.04 67.53 861.11 68.41C863.49 56.13 865.88 43.85 868.26 31.57C869.93 22.94 871.51 14.28 873.36 5.68999C873.64 4.39999 875.14 2.40999 876.11 2.38999C887.04 2.14999 897.99 2.23999 909.92 2.23999C899.95 49.07 890.15 95.06 880.25 141.57H880.24Z" fill="#1A1F22"/>
<path d="M551.59 71.47V135.18C551.59 140.55 551.55 140.57 546.02 140.58C537.53 140.6 529.03 140.47 520.54 140.64C517.32 140.71 516.22 139.69 516.23 136.39C516.32 93.09 516.33 49.78 516.23 6.47001C516.23 2.77001 517.75 2.05001 520.99 2.10001C530.98 2.24001 540.98 2.28001 550.97 2.08001C554.48 2.01001 556.33 3.45001 558.03 6.36001C568.67 24.57 579.48 42.68 590.24 60.82C590.73 61.64 591.37 62.36 592.75 64.23C592.89 61.29 593.04 59.57 593.04 57.85C593.06 41.19 593.04 24.54 593.06 7.88001C593.06 2.19001 593.1 2.16001 598.93 2.15001C607.26 2.13001 615.59 2.26001 623.91 2.09001C627.26 2.02001 628.6 3.00001 628.6 6.58001C628.5 49.89 628.52 93.19 628.58 136.5C628.58 139.43 627.77 140.67 624.64 140.62C615.65 140.47 606.65 140.38 597.66 140.66C594.16 140.77 593.02 138.54 591.69 136.32C580.01 116.79 568.39 97.23 556.74 77.68C555.43 75.48 554.02 73.32 552.66 71.15C552.31 71.25 551.95 71.35 551.6 71.46H551.59V71.47Z" fill="#1A1F22"/>
<path d="M239.49 72.68C238.24 82.05 237.69 92.6 235.29 102.72C229.84 125.74 214.33 139.22 190.79 141.35C181.11 142.23 171.11 141.94 161.48 140.56C140.66 137.57 126.95 125.37 121.49 105.06C115.6 83.14 115.64 60.9 121.15 38.87C126.25 18.48 139.41 6.16001 160.11 2.08001C173.37 -0.539993 186.63 -0.469993 199.73 2.84001C221.05 8.21001 232.45 22.88 236.29 43.78C237.97 52.9 238.38 62.25 239.49 72.69V72.68ZM154.88 70.68C155.48 78.43 155.74 84.57 156.49 90.65C157.22 96.56 159.27 102.01 164.37 105.67C177.28 114.93 196.19 108.04 199.31 92.63C202.05 79.16 201.93 65.5 199.16 52.03C197.28 42.9 191.62 37.64 183.62 36.72C181.15 36.44 178.64 36.58 176.14 36.59C166.22 36.65 159.83 40.98 157.56 50.58C155.89 57.62 155.59 64.98 154.87 70.69L154.88 70.68Z" fill="#1A1F22"/>
<path d="M37.4 51.19H62.92C71.06 51.19 75.13 47.09 75.13 38.89C75.13 28.22 75.27 17.55 75.06 6.89C74.98 3.1 76.32 2 79.97 2.08C89.3 2.29 98.64 2.25 107.97 2.1C111.32 2.05 112.69 3.02 112.68 6.61C112.59 49.78 112.59 92.94 112.68 136.11C112.68 139.62 111.54 140.71 108.09 140.65C98.59 140.46 89.09 140.46 79.59 140.65C76.07 140.72 75.03 139.52 75.06 136.07C75.21 121.07 75.12 106.07 75.11 91.07C75.11 90.24 75 89.42 74.9 88.09H37.64V139.88C36 140.18 34.9 140.54 33.81 140.55C23.98 140.6 14.14 140.48 4.31 140.64C1.09 140.69 0 139.64 0 136.35C0.09 93.18 0.08 50.01 0 6.85C0 3.54 0.84 2.03 4.47 2.1C13.97 2.29 23.47 2.29 32.97 2.1C36.55 2.03 37.49 3.39 37.45 6.77C37.3 19.43 37.39 32.1 37.39 44.77V51.2H37.4V51.19Z" fill="#1A1F22"/>
<path d="M1066.35 140.29H1027.74C1022.75 128.21 1017.69 115.98 1012.65 103.74C1010.34 98.14 1005.39 95.69 999.88 97.97C998.81 98.41 998.06 100.87 998.04 102.41C997.88 112.9 997.95 123.4 997.95 133.89V139.98C996.66 140.25 995.9 140.54 995.13 140.54C985.14 140.58 975.14 140.49 965.15 140.63C962.11 140.67 960.94 139.64 961.13 136.6C961.32 133.61 961.17 130.61 961.17 127.61V8.18C961.17 2.19 961.19 2.17 967.21 2.16C984.37 2.16 1001.53 1.99 1018.68 2.25C1024.96 2.35 1031.35 2.88 1037.46 4.26C1052.68 7.68 1062.23 17.13 1065.59 32.57C1068.45 45.71 1068.07 58.66 1063.52 71.38C1060.8 78.97 1056.22 85.27 1049.35 89.56C1046.35 91.43 1046.37 93.14 1047.65 96.03C1053.61 109.54 1059.37 123.14 1065.17 136.71C1065.61 137.73 1065.87 138.83 1066.34 140.29H1066.35ZM997.82 34.65C997.82 44.97 997.73 54.58 997.96 64.18C997.98 65.16 999.92 66.91 1000.98 66.92C1007.78 67.02 1014.59 66.9 1021.38 66.51C1026.33 66.22 1029.57 63.06 1030.1 58.37C1030.69 53.17 1030.66 47.79 1029.97 42.61C1029.34 37.91 1025.84 34.91 1020.98 34.73C1013.53 34.45 1006.07 34.66 997.83 34.66H997.82V34.65Z" fill="#1A1F22"/>
<path d="M746.43 56.93C746.03 75.49 747.72 93.66 743.65 111.58C740 127.64 729.93 137.04 713.95 140.17C700.42 142.82 686.78 143.34 673.26 140.33C654.44 136.14 643.02 123.88 638.56 105.58C633.29 83.95 633.21 62.08 637.98 40.25C642.75 18.39 656.35 5.81998 678.2 2.03998C696.95 -1.20002 715.34 -0.280018 733.03 7.43998C734.86 8.23998 736.62 9.18998 738.37 10.15C739.07 10.54 739.66 11.14 740.75 12C734.27 22.13 727.88 32.13 721.32 42.38C718.55 41.29 715.96 40.33 713.41 39.26C705.78 36.06 697.77 36.21 689.8 36.8C682.84 37.31 678.03 41.26 675.63 47.74C674.37 51.14 673.33 54.76 673.04 58.36C672.02 71.14 671.32 84 674.41 96.61C677.59 109.58 693.12 116 704.55 109.09C706.82 107.72 709.15 105.3 709.95 102.87C711.47 98.27 711.91 93.31 712.96 87.6C705.52 87.6 699.24 87.4 692.98 87.68C689.21 87.85 688.09 86.57 688.2 82.86C688.45 74.38 688.28 65.89 688.28 56.94H746.43V56.93Z" fill="#1A1F22"/>
<path d="M320.65 50.33C320.65 36.17 320.63 22.01 320.65 7.84999C320.66 2.21999 320.71 2.17999 326.13 2.15999C335.13 2.12999 344.12 2.26999 353.12 2.09999C356.39 2.03999 357.48 3.15999 357.44 6.40999C357.08 37.38 356.95 68.36 356.44 99.33C356.36 104.23 355.17 109.24 353.71 113.95C349.52 127.46 340.04 135.82 326.62 139.5C310.1 144.03 293.33 144.22 276.74 140.02C258.13 135.31 247.57 122.92 245.27 103.81C244.61 98.37 244.24 92.86 244.21 87.39C244.1 60.9 244.16 34.41 244.17 7.91999C244.17 2.18999 244.2 2.16999 249.96 2.15999C258.29 2.13999 266.62 2.15999 274.95 2.15999C279.36 2.15999 281.58 4.30999 281.59 8.60999C281.59 34.27 281.56 59.92 281.64 85.58C281.65 89.39 281.98 93.24 282.56 97.01C283.59 103.74 287.07 107.39 293.88 108.46C297.94 109.1 302.21 109.4 306.27 108.91C315.75 107.77 319.95 103.37 320.18 93.8C320.52 79.32 320.27 64.82 320.27 50.33H320.65Z" fill="#1A1F22"/>
<path d="M1165.4 35.84C1162.83 35.96 1160.87 36.12 1158.9 36.13C1144.24 36.15 1129.57 36.26 1114.91 36.07C1110.86 36.02 1109.42 37.15 1109.47 41.41C1109.62 53.8 1109.44 53.81 1121.73 53.81C1134.02 53.81 1145.73 53.96 1157.72 53.73C1161.94 53.65 1163.22 55.19 1163.09 59.25C1162.85 66.57 1163.05 73.91 1163.01 81.24C1162.98 86.85 1162.95 86.89 1157.5 86.9C1143.34 86.92 1129.17 86.9 1115.01 86.92C1109.6 86.92 1109.59 86.96 1109.57 92.51C1109.56 97.16 1109.57 101.81 1109.57 107.07C1111.61 107.18 1113.36 107.35 1115.11 107.35C1130.27 107.37 1145.44 107.47 1160.6 107.29C1164.26 107.25 1165.58 108.22 1165.48 112.04C1165.23 121.32 1165.4 130.62 1165.4 140.27C1163.25 140.4 1161.64 140.59 1160.03 140.59C1132.87 140.61 1105.71 140.61 1078.54 140.59C1073.17 140.59 1073.15 140.55 1073.15 135.02V8.03998C1073.15 2.20998 1073.18 2.17998 1078.85 2.16998C1105.85 2.16998 1132.84 2.16998 1159.84 2.16998C1165.36 2.16998 1165.39 2.20998 1165.4 7.61998C1165.42 16.9 1165.4 26.19 1165.4 35.84Z" fill="#1A1F22"/>
<path d="M460.78 10.38C455.59 20.46 450.38 30.59 445 41.04C434.09 36 423.2 34.17 411.91 34.73C409.77 34.84 407.64 35.26 405.5 35.52C401.71 35.98 399.36 38.03 398.93 41.86C398.47 45.95 400.06 49.15 404.04 50.55C408.25 52.04 412.61 53.14 416.9 54.43C424.7 56.77 432.6 58.79 440.26 61.53C455.96 67.15 464.83 78.25 465.25 95.2C465.39 100.97 465.11 106.92 463.88 112.54C460.61 127.43 450.47 136.14 436.15 139.51C412.37 145.11 388.9 143.23 366.06 134.53C362.57 133.2 359.38 131.07 355.49 129.02C361.99 119.16 368.08 109.92 374.31 100.48C387.9 108.92 402.44 111.26 417.69 110.46C425.78 110.03 429.47 106.57 429.06 99.78C428.78 95.1 426.08 92.46 421.87 91.29C414.68 89.28 407.39 87.63 400.22 85.54C395.12 84.05 390 82.46 385.17 80.27C368.1 72.53 362.07 60.71 362.45 42.82C362.94 19.61 374.72 5.67003 397.53 1.76003C417.52 -1.66997 437.34 -0.259973 456.35 7.62003C457.42 8.06003 458.48 8.54003 459.5 9.09003C459.91 9.31003 460.19 9.78003 460.78 10.4V10.38Z" fill="#1A1F22"/>
<path d="M915.54 140.57C915.43 138.24 915.28 136.61 915.28 134.98C915.27 92.7 915.27 50.42 915.28 8.15C915.28 2.19 915.3 2.17 921.3 2.17C930.12 2.17 938.95 2.3 947.76 2.11C951.35 2.03 952.75 3.05 952.74 6.88C952.63 49.99 952.67 93.1 952.67 136.21C952.67 138.4 952.94 140.64 949.56 140.61C938.43 140.53 927.3 140.58 915.54 140.58V140.57Z" fill="#1A1F22"/>
<path d="M470.56 140.57C470.44 138.28 470.28 136.65 470.28 135.03C470.27 92.74 470.27 50.45 470.28 8.14999C470.28 2.17999 470.3 2.16999 476.3 2.15999C484.79 2.15999 493.29 2.26999 501.77 2.09999C505.09 2.02999 506.47 2.93999 506.46 6.54999C506.36 49.84 506.39 93.13 506.41 136.42C506.41 138.75 506.4 140.65 503.12 140.62C492.48 140.5 481.84 140.57 470.56 140.57Z" fill="#1A1F22"/>
</g>
<defs>
<clipPath id="clip0_2132_2">
<rect width="1165.49" height="143.04" fill="white"/>
</clipPath>
</defs>
</svg>



