<svg version="1.2" xmlns="http://www.w3.org/2000/svg" viewBox="0 0 637 145" width="637" height="145">
	<title>seattle-logo (2)</title>
	<style>
		.s0 { fill: #000000 } 
	</style>
	<g>
		<g>
			<path fill-rule="evenodd" class="s0" d="m111.5 64h6.6v-28.1h5.8c9.7 0 15.3-5 15.3-14.6v-5.9c0-10-5.6-14.3-15.3-14.3h-12.4zm6.6-33.3v-24.4h6.1c5.5 0 8.4 2.2 8.4 9.1v5.9c0 6.5-2.8 9.4-8.4 9.4zm55.6-29.6v47c0 8-3.1 11.1-8.6 11.1-5.7 0-8.7-3.1-8.7-10.5v-47.6h-6.6v47.7c0 10.9 6 16 15.3 16 9.7 0 15.2-5.4 15.2-16.2v-47.5zm36.1 36.7h8.3v9.9c0 7.7-2.6 11.5-8.9 11.5-6.8 0-9.9-4.5-9.9-12.6v-28.2c0-8.4 2.9-12.7 9.5-12.7 5.2 0 8.8 2.8 8.8 10.2v0.6h6.3v-0.7c0-11.5-6.6-15.5-15.1-15.5-10.1 0-16.3 6.3-16.3 18.1v28.2c0 11.6 6.3 18.2 16.7 18.2 9.8 0 15.5-5.3 15.5-16.9v-15.5h-14.9zm26.9 26.2h25.3v-5.3h-18.7v-25.8h14.3v-5.2h-14.3v-21.3h17.5v-5.3h-24.1zm44 0h6.5l0.1-57.6h10.9v-5.3h-28.3v5.3h10.8zm56.3 0.7c8.2 0 13.8-4.8 13.8-15.2v-1.3c0-10.2-4.2-14.2-12.3-20.2-6.7-5.1-9.1-7.8-9.1-14v-0.4c0-5.3 2.5-7.9 7-7.9 4.4 0 7.2 2.2 7.2 8.5v2.2h6.2v-2.2c0-9.4-4.9-14-13.4-14-8.1 0-13.3 5.1-13.3 13.9v0.2c0 8.9 4.2 13.3 11.4 18.8 6.9 5.2 9.9 8.1 9.9 15.5v1.2c0 6.2-2.7 9.5-7.4 9.5-5.8 0-8.3-3.2-8.3-10.3v-2.1h-6.3v2.1c0 10.1 5.1 15.7 14.6 15.7zm41.2 0c10 0 16.4-6.6 16.4-18.3v-28.1c0-11.5-6.4-18.1-16.4-18.1-10 0-16.5 6.6-16.5 18.2v28.2c0 11.5 6.5 18.1 16.5 18.1zm0-5.5c-6.7 0-9.8-4.5-9.8-12.7v-28.1c0-8.2 3.2-12.7 9.8-12.7 6.5 0 9.7 4.9 9.7 12.7v28c0 8-3.2 12.8-9.7 12.8zm52.6-58.2v47.1c0 7.9-3.1 11.1-8.7 11.1-5.7 0-8.6-3.2-8.6-10.6v-47.6h-6.6v47.8c0 10.8 6 15.9 15.2 15.9 9.8 0 15.3-5.3 15.3-16.1v-47.6zm19.4 63h6v-50.6l17 50.6h6.9v-63h-5.9v46.8l-15.9-46.8h-8.1zm42.9-62.9v62.9h12.5c12.2 0 18.5-6 18.5-18.5v-25.8c0-12.9-6.6-18.6-18.6-18.6zm12.1 5.2c9 0 12.2 4.5 12.2 13.3v25.8c0 9.1-3.1 13.4-12.2 13.4h-5.5v-52.5zm-505.1 137.7h17.7c11.8 0 18-4.2 18-15.8v-4.1c0-8-4.1-11.8-10.8-13.2 5.7-1.3 9.4-4.7 9.4-11.3v-4.4c0-9.6-5.6-14.1-17-14.1h-17.3zm13.3-9.6v-18.8h2.9c4.3 0 6 1.3 6 7v4.5c0 5.3-1.7 7.3-5.8 7.3zm0-27.9v-15.8h2.8c3.6 0 5.4 1 5.4 5.7v4c0 4.6-1.5 6.1-5.4 6.1zm54.6-25.4v45.8c0 5.2-1.4 7.1-4.7 7.1-3.6 0-4.8-1.9-4.8-7.1v-45.8h-13.6v46.1c0 12.2 6.6 17.8 18.3 17.8 11.6 0 18.5-5.5 18.5-17.7v-46.2zm39.8 63.9c11.2 0 17.4-5.7 17.4-17.2v-1.2c0-12.3-6.4-16.1-13.9-20.9-5.4-3.7-7.4-5.2-7.4-9.7v-0.4c0-3.5 1.3-4.9 3.8-4.9 2.4 0 4.1 1.1 4.1 5.6v2h12.7v-1.8c-0.1-11.1-6.1-16.3-16.8-16.3-10.8 0-17 5.8-17 16.3v0.3c0 10.4 4.3 15.1 12.5 20.3 5.7 3.7 8.7 5.4 8.7 11.1v0.7c0 4-1.3 5.8-4.1 5.8-3.3 0-4.6-1.7-4.6-6.8v-2.5h-13.1v2.1c0.1 12.6 7 17.5 17.7 17.5zm27-1h13.6v-62.9h-13.6zm24.3 0h11.7v-39.1l12.5 39.1h12.8v-62.9h-11.7v33.6l-10.7-33.6h-14.6zm47.5 0h29.4v-10.7h-15.9v-17.4h11.8v-10.1h-11.8v-14.1h15v-10.6h-28.5zm54.7 0.9c11.1 0 17.4-5.7 17.4-17.1v-1.3c0-12.3-6.4-16.1-13.9-20.8-5.5-3.7-7.4-5.3-7.4-9.8v-0.3c0-3.6 1.2-5 3.8-5 2.3 0 4 1.2 4 5.7v2h12.8v-1.9c-0.1-11.1-6.2-16.2-16.8-16.2-10.9 0-17 5.8-17 16.2v0.4c0 10.4 4.3 15 12.5 20.2 5.6 3.7 8.7 5.5 8.7 11.1v0.7c0 4.1-1.3 5.8-4.1 5.8-3.3 0-4.6-1.6-4.6-6.8v-2.4h-13.1v2c0.1 12.6 6.9 17.5 17.7 17.5zm42.7 0c11.2 0 17.4-5.7 17.4-17.1v-1.3c0-12.3-6.4-16.1-13.9-20.8-5.5-3.7-7.4-5.3-7.4-9.8v-0.3c0-3.6 1.2-5 3.8-5 2.4 0 4 1.2 4 5.7v2h12.8v-1.9c-0.1-11.1-6.2-16.2-16.8-16.2-10.8 0-17 5.8-17 16.2v0.4c0 10.4 4.3 15 12.5 20.2 5.6 3.7 8.7 5.5 8.7 11.1v0.7c0 4.1-1.3 5.8-4.1 5.8-3.3 0-4.6-1.6-4.6-6.8v-2.4h-13.1v2c0.1 12.6 6.9 17.5 17.7 17.5zm46.3-0.4c10.3 0 15.8-5.8 15.8-16.7v-46.8h-13.6v46.2c0 4.4-2 5.9-5.4 5.9-1.9 0-3.1-0.2-4.1-0.5v10.6c1.5 0.7 3.6 1.3 7.3 1.3zm44.5 0.4c11.7 0 19.3-6.1 19.3-19.2v-26.7c0-13.2-7.8-18.8-19.3-18.8-11.1 0-19.2 5.9-19.2 18.9v27c0 12.9 7.5 18.8 19.2 18.8zm0-10.9c-3.7 0-5.3-2.3-5.3-8v-27c0-5.6 1.7-7.9 5.3-7.9 3.7 0 5.5 2.4 5.5 7.9v26.9c0 5.7-1.8 8.1-5.5 8.1zm52.2-53v45.8c0 5.3-1.4 7.1-4.7 7.1-3.6 0-4.8-1.8-4.8-7v-45.9h-13.6v46.1c0 12.3 6.6 17.8 18.3 17.8 11.6 0 18.5-5.4 18.5-17.7v-46.2zm23.9 63h13.5v-26.3h2.5l6.9 26.3h14.1l-8.2-28.4c4.1-2 6.5-5.4 6.5-12.5v-6.4c0-10.5-5-15.7-18.2-15.7h-17.1zm13.5-34.9v-17.6h3.2c3.8 0 5.4 1.5 5.4 5.7v5.8c0 4.5-1.7 6.1-5.4 6.1zm31.7 34.9h11.7v-39l12.5 39h12.9v-62.9h-11.8v33.6l-10.7-33.6h-14.6zm70.6 0h13.8l-10.1-62.9h-19.4l-10 62.9h12.4l1.7-12.8h9.9zm-6.7-50.9l3.7 28.6h-7.4zm28.3 50.9h27.7v-10.9h-14.2v-52.1h-13.5z"/>
		</g>
	</g>
</svg>